{
  "asset": {
    "version": "2.0",
    "generator": "THREE.GLTFExporter r185"
  },
  "scenes": [
    {
      "name": "Scene",
      "nodes": [
        0
      ]
    }
  ],
  "scene": 0,
  "nodes": [
    {
      "name": "3d-Skull-Primitives",
      "extras": {
        "unitScaleFactor": 1
      },
      "children": [
        1,
        2,
        3,
        4
      ]
    },
    {
      "matrix": [
        1,
        0,
        0,
        0,
        0,
        0.9809553131793016,
        -0.1942335541179697,
        0,
        0,
        0.19786192074191367,
        0.9992799818189875,
        0,
        0,
        -0.010292719252800508,
        -0.034860003397262584,
        1
      ],
      "name": "neurocranium",
      "extras": {
        "originalName": "neurocranium",
        "transformData": {
          "inheritType": 1,
          "eulerOrder": "ZYX",
          "translation": [
            0,
            -0.010292719252800508,
            -0.034860003397262584
          ],
          "rotation": [
            -11.19995344274746,
            0,
            0
          ],
          "scale": [
            1,
            1,
            1.0186804316093616
          ],
          "parentMatrix": {
            "elements": [
              1,
              0,
              0,
              0,
              0,
              1,
              0,
              0,
              0,
              0,
              1,
              0,
              0,
              0,
              0,
              1
            ]
          },
          "parentMatrixWorld": {
            "elements": [
              1,
              0,
              0,
              0,
              0,
              1,
              0,
              0,
              0,
              0,
              1,
              0,
              0,
              0,
              0,
              1
            ]
          }
        }
      },
      "mesh": 0
    },
    {
      "matrix": [
        0.7914795254812186,
        0,
        0,
        0,
        0,
        0.7816953260833053,
        -0.09896361405942444,
        0,
        0,
        0.08861288673242743,
        0.6999368409069469,
        0,
        0,
        -0.9071744754816572,
        0.749634201149858,
        1
      ],
      "name": "splanchnocranium",
      "extras": {
        "originalName": "splanchnocranium",
        "transformData": {
          "inheritType": 1,
          "eulerOrder": "ZYX",
          "translation": [
            0,
            -0.9071744754816572,
            0.749634201149858
          ],
          "rotation": [
            -7.2153325070317,
            0,
            0
          ],
          "scale": [
            0.7914795254812186,
            0.7879348829238287,
            0.7055237947467474
          ],
          "parentMatrix": {
            "elements": [
              1,
              0,
              0,
              0,
              0,
              1,
              0,
              0,
              0,
              0,
              1,
              0,
              0,
              0,
              0,
              1
            ]
          },
          "parentMatrixWorld": {
            "elements": [
              1,
              0,
              0,
              0,
              0,
              1,
              0,
              0,
              0,
              0,
              1,
              0,
              0,
              0,
              0,
              1
            ]
          }
        }
      },
      "mesh": 1
    },
    {
      "matrix": [
        0.6235289480553713,
        0,
        0,
        0,
        0,
        0.3483785949411203,
        0.07856273096238399,
        0,
        0,
        -0.13304463451363963,
        0.5899731624465688,
        0,
        0,
        -1.1974933364277678,
        -0.1782106729616157,
        1
      ],
      "name": "neck",
      "extras": {
        "originalName": "neck",
        "transformData": {
          "inheritType": 1,
          "eulerOrder": "ZYX",
          "translation": [
            0,
            -1.1974933364277673,
            -0.17821067296161566
          ],
          "rotation": [
            12.708173558650826,
            0,
            0
          ],
          "scale": [
            0.6235289480553713,
            0.3571270755759315,
            0.6047885640288457
          ],
          "scalingOffset": [
            -0.35804523363784857,
            -0.07015332793545152,
            -0.12212698266083975
          ],
          "scalingPivot": [
            0.951056480407715,
            0.10912472009658813,
            0.30901682376861583
          ],
          "rotationOffset": [
            0,
            -0.04206770587740595,
            0.003994927686481832
          ],
          "rotationPivot": [
            0.5930112467698664,
            0.03897139216113661,
            0.18688984110777607
          ],
          "parentMatrix": {
            "elements": [
              1,
              0,
              0,
              0,
              0,
              1,
              0,
              0,
              0,
              0,
              1,
              0,
              0,
              0,
              0,
              1
            ]
          },
          "parentMatrixWorld": {
            "elements": [
              1,
              0,
              0,
              0,
              0,
              1,
              0,
              0,
              0,
              0,
              1,
              0,
              0,
              0,
              0,
              1
            ]
          }
        }
      },
      "mesh": 2
    },
    {
      "matrix": [
        1.450212368464196,
        0,
        0,
        0,
        0,
        1.2034115047815788,
        0,
        0,
        0,
        0,
        1.1847270362348936,
        0,
        0,
        -1.4367794068908157,
        -0.11820956842674948,
        1
      ],
      "name": "torso",
      "extras": {
        "originalName": "torso",
        "transformData": {
          "inheritType": 1,
          "eulerOrder": "ZYX",
          "translation": [
            0,
            -1.6401909388922373,
            -0.11820956842674948
          ],
          "scale": [
            1.450212368464196,
            1.2034115047815788,
            1.1847270362348936
          ],
          "scalingPivot": [
            0,
            -1.0000001338166338,
            0
          ],
          "rotationPivot": [
            0,
            -1.0000001338166338,
            0
          ],
          "parentMatrix": {
            "elements": [
              1,
              0,
              0,
              0,
              0,
              1,
              0,
              0,
              0,
              0,
              1,
              0,
              0,
              0,
              0,
              1
            ]
          },
          "parentMatrixWorld": {
            "elements": [
              1,
              0,
              0,
              0,
              0,
              1,
              0,
              0,
              0,
              0,
              1,
              0,
              0,
              0,
              0,
              1
            ]
          }
        }
      },
      "mesh": 3
    }
  ],
  "bufferViews": [
    {
      "buffer": 0,
      "byteOffset": 0,
      "byteLength": 17280,
      "target": 34962,
      "byteStride": 12
    },
    {
      "buffer": 0,
      "byteOffset": 17280,
      "byteLength": 17280,
      "target": 34962,
      "byteStride": 12
    },
    {
      "buffer": 0,
      "byteOffset": 34560,
      "byteLength": 11520,
      "target": 34962,
      "byteStride": 8
    },
    {
      "buffer": 0,
      "byteOffset": 46080,
      "byteLength": 21600,
      "target": 34962,
      "byteStride": 12
    },
    {
      "buffer": 0,
      "byteOffset": 67680,
      "byteLength": 21600,
      "target": 34962,
      "byteStride": 12
    },
    {
      "buffer": 0,
      "byteOffset": 89280,
      "byteLength": 14400,
      "target": 34962,
      "byteStride": 8
    },
    {
      "buffer": 0,
      "byteOffset": 103680,
      "byteLength": 27360,
      "target": 34962,
      "byteStride": 12
    },
    {
      "buffer": 0,
      "byteOffset": 131040,
      "byteLength": 27360,
      "target": 34962,
      "byteStride": 12
    },
    {
      "buffer": 0,
      "byteOffset": 158400,
      "byteLength": 18240,
      "target": 34962,
      "byteStride": 8
    },
    {
      "buffer": 0,
      "byteOffset": 176640,
      "byteLength": 34488,
      "target": 34962,
      "byteStride": 12
    },
    {
      "buffer": 0,
      "byteOffset": 211128,
      "byteLength": 34488,
      "target": 34962,
      "byteStride": 12
    },
    {
      "buffer": 0,
      "byteOffset": 245616,
      "byteLength": 22992,
      "target": 34962,
      "byteStride": 8
    }
  ],
  "buffers": [
    {
      "byteLength": 268608,
      "uri": "data:application/octet-stream;base64,"
    }
  ],
  "accessors": [
    {
      "bufferView": 0,
      "componentType": 5126,
      "count": 1440,
      "max": [
        0.9458293914794922,
        0.9343395233154297,
        1.221691370010376
      ],
      "min": [
        -0.9458292722702026,
        -0.842384397983551,
        -0.9393024444580078
      ],
      "type": "VEC3"
    },
    {
      "bufferView": 1,
      "componentType": 5126,
      "count": 1440,
      "max": [
        0.9983919858932495,
        0.997236430644989,
        1
      ],
      "min": [
        -0.9983919858932495,
        -0.9975107312202454,
        -0.9999994039535522
      ],
      "type": "VEC3"
    },
    {
      "bufferView": 2,
      "componentType": 5126,
      "count": 1440,
      "max": [
        1,
        1
      ],
      "min": [
        0,
        0
      ],
      "type": "VEC2"
    },
    {
      "bufferView": 3,
      "componentType": 5126,
      "count": 1800,
      "max": [
        0.9510568380355835,
        1,
        0.9522541165351868
      ],
      "min": [
        -0.951056718826294,
        -1.000000238418579,
        -0.9522548913955688
      ],
      "type": "VEC3"
    },
    {
      "bufferView": 4,
      "componentType": 5126,
      "count": 1800,
      "max": [
        1,
        1,
        1
      ],
      "min": [
        -1,
        -1,
        -1
      ],
      "type": "VEC3"
    },
    {
      "bufferView": 5,
      "componentType": 5126,
      "count": 1800,
      "max": [
        0.6486026644706726,
        1
      ],
      "min": [
        0.35139739513397217,
        -7.450580596923828e-8
      ],
      "type": "VEC2"
    },
    {
      "bufferView": 6,
      "componentType": 5126,
      "count": 2280,
      "max": [
        0.9510568380355835,
        1.567080020904541,
        0.9522541165351868
      ],
      "min": [
        -0.951056718826294,
        -2.281165361404419,
        -0.9555972814559937
      ],
      "type": "VEC3"
    },
    {
      "bufferView": 7,
      "componentType": 5126,
      "count": 2280,
      "max": [
        0.9999986290931702,
        1,
        0.9999819397926331
      ],
      "min": [
        -0.9999986290931702,
        -0.9784626960754395,
        -0.9999995827674866
      ],
      "type": "VEC3"
    },
    {
      "bufferView": 8,
      "componentType": 5126,
      "count": 2280,
      "max": [
        0.6486026644706726,
        1
      ],
      "min": [
        0.35139739513397217,
        -7.450580596923828e-8
      ],
      "type": "VEC2"
    },
    {
      "bufferView": 9,
      "componentType": 5126,
      "count": 2874,
      "max": [
        0.9877642393112183,
        -0.12141692638397217,
        0.9873372316360474
      ],
      "min": [
        -0.987764298915863,
        -0.9999996423721313,
        -0.9782029986381531
      ],
      "type": "VEC3"
    },
    {
      "bufferView": 10,
      "componentType": 5126,
      "count": 2874,
      "max": [
        0.9999855160713196,
        0.9268731474876404,
        0.996309220790863
      ],
      "min": [
        -0.9999855160713196,
        -1,
        -0.9925123453140259
      ],
      "type": "VEC3"
    },
    {
      "bufferView": 11,
      "componentType": 5126,
      "count": 2874,
      "max": [
        0.65625,
        1
      ],
      "min": [
        0.3437499701976776,
        -7.450580596923828e-8
      ],
      "type": "VEC2"
    }
  ],
  "materials": [
    {
      "pbrMetallicRoughness": {
        "baseColorFactor": [
          0.0069954101845983935,
          0.181164244239483,
          0.158960835050774,
          1
        ],
        "metallicFactor": 0,
        "roughnessFactor": 0.93
      }
    },
    {
      "pbrMetallicRoughness": {
        "baseColorFactor": [
          0.20863687013464577,
          0.05286064701616471,
          0.05286064701616471,
          1
        ],
        "metallicFactor": 0,
        "roughnessFactor": 0.94
      }
    },
    {
      "pbrMetallicRoughness": {
        "baseColorFactor": [
          0.5711248294565854,
          0.4735314961384573,
          0.3231432091022285,
          1
        ],
        "metallicFactor": 0,
        "roughnessFactor": 0.65
      }
    },
    {
      "pbrMetallicRoughness": {
        "baseColorFactor": [
          0.5711248294565854,
          0.4735314961384573,
          0.3231432091022285,
          1
        ],
        "metallicFactor": 0,
        "roughnessFactor": 0.65
      }
    }
  ],
  "meshes": [
    {
      "primitives": [
        {
          "mode": 4,
          "attributes": {
            "POSITION": 0,
            "NORMAL": 1,
            "TEXCOORD_0": 2
          },
          "material": 0
        }
      ]
    },
    {
      "primitives": [
        {
          "mode": 4,
          "attributes": {
            "POSITION": 3,
            "NORMAL": 4,
            "TEXCOORD_0": 5
          },
          "material": 1
        }
      ]
    },
    {
      "primitives": [
        {
          "mode": 4,
          "attributes": {
            "POSITION": 6,
            "NORMAL": 7,
            "TEXCOORD_0": 8
          },
          "material": 2
        }
      ]
    },
    {
      "primitives": [
        {
          "mode": 4,
          "attributes": {
            "POSITION": 9,
            "NORMAL": 10,
            "TEXCOORD_0": 11
          },
          "material": 3
        }
      ]
    }
  ]
}